<svg width="24" height="24" viewBox="0 0 24 24" fill="none" xmlns="http://www.w3.org/2000/svg">
<path d="M3.33047 8.90961C3.33047 8.71961 3.40047 8.52961 3.55047 8.37961C3.84047 8.08961 4.32047 8.08961 4.61047 8.37961L11.1305 14.8996C11.6105 15.3796 12.3905 15.3796 12.8705 14.8996L19.3905 8.37961C19.6805 8.08961 20.1605 8.08961 20.4505 8.37961C20.7405 8.66961 20.7405 9.14961 20.4505 9.43961L13.9305 15.9596C13.4205 16.4696 12.7305 16.7596 12.0005 16.7596C11.2705 16.7596 10.5805 16.4796 10.0705 15.9596L3.55047 9.43961C3.41047 9.28961 3.33047 9.09961 3.33047 8.90961Z" fill="#808080"/>
</svg>
